<?xml version="1.0" encoding="iso-8859-1"?>
<!-- Uploaded to: SVG Repo, www.svgrepo.com, Generator: SVG Repo Mixer Tools -->
<svg fill="#000000" version="1.1" id="Capa_1" xmlns="http://www.w3.org/2000/svg" xmlns:xlink="http://www.w3.org/1999/xlink" 
	 viewBox="0 0 60 60" xml:space="preserve">
<g>
	<g>
		<path d="M59,33.5h-6v-8c0-2.2-1.8-4-4-4H38v-3c0-0.6-0.4-1-1-1h-6v-6h6c0.6,0,1-0.4,1-1v-8c0-0.6-0.4-1-1-1H23c-0.6,0-1,0.4-1,1v8
			c0,0.6,0.4,1,1,1h6v6h-6c-0.6,0-1,0.4-1,1v3H11c-1.1,0-2-0.9-2-2v-8h6c0.6,0,1-0.4,1-1v-8c0-0.6-0.4-1-1-1H1c-0.6,0-1,0.4-1,1v8
			c0,0.6,0.4,1,1,1h6v8c0,2.2,1.8,4,4,4h11v3c0,0.6,0.4,1,1,1h6v6h-6c-0.6,0-1,0.4-1,1v8c0,0.6,0.4,1,1,1h6v6h-6c-0.6,0-1,0.4-1,1v8
			c0,0.6,0.4,1,1,1h14c0.6,0,1-0.4,1-1v-8c0-0.6-0.4-1-1-1h-6v-6h6c0.6,0,1-0.4,1-1v-8c0-0.6-0.4-1-1-1h-6v-6h6c0.6,0,1-0.4,1-1v-3
			h11c1.1,0,2,0.9,2,2v8h-6c-0.6,0-1,0.4-1,1v8c0,0.6,0.4,1,1,1h14c0.6,0,1-0.4,1-1v-8C60,33.9,59.6,33.5,59,33.5z M2,9.5v-6h12v6H2
			z M24,9.5v-6h12v6H24z M36,51.5v6H24v-6H36z M36,35.5v6H24v-6H36z M36,25.5H24v-6h12V25.5z M58,41.5H46v-6h12V41.5z"/>
		<rect x="29" y="5.5" width="2" height="2"/>
		<rect x="26" y="5.5" width="2" height="2"/>
		<rect x="32" y="5.5" width="2" height="2"/>
		<rect x="29" y="21.5" width="2" height="2"/>
		<rect x="26" y="21.5" width="2" height="2"/>
		<rect x="32" y="21.5" width="2" height="2"/>
		<rect x="29" y="37.5" width="2" height="2"/>
		<rect x="26" y="37.5" width="2" height="2"/>
		<rect x="32" y="37.5" width="2" height="2"/>
		<rect x="29" y="53.5" width="2" height="2"/>
		<rect x="26" y="53.5" width="2" height="2"/>
		<rect x="32" y="53.5" width="2" height="2"/>
		<rect x="48" y="37.5" width="8" height="2"/>
		<rect x="4" y="5.5" width="8" height="2"/>
		<rect y="36.5" width="2" height="2"/>
		<rect y="40.5" width="14" height="2"/>
		<rect y="44.5" width="14" height="2"/>
		<rect x="4" y="36.5" width="2" height="2"/>
		<rect x="8" y="36.5" width="2" height="2"/>
		<rect x="46" y="0.5" width="2" height="2"/>
		<rect x="46" y="4.5" width="14" height="2"/>
		<rect x="46" y="8.5" width="14" height="2"/>
		<path d="M46,14.5h6v3H40v2h13c0.6,0,1-0.4,1-1v-4h6v-2H46V14.5z"/>
		<rect x="50" y="0.5" width="2" height="2"/>
		<rect x="54" y="0.5" width="2" height="2"/>
		<path d="M8,50.5h6v-2H0v2h6v5c0,0.6,0.4,1,1,1h12v-2H8V50.5z"/>
	</g>
</g>
</svg>